<?xml version="1.0" encoding="utf-8"?>
<!-- Generator: Adobe Illustrator 16.0.0, SVG Export Plug-In . SVG Version: 6.00 Build 0)  -->
<!DOCTYPE svg PUBLIC "-//W3C//DTD SVG 1.1//EN" "http://www.w3.org/Graphics/SVG/1.1/DTD/svg11.dtd">
<svg version="1.1" id="Layer_3" xmlns="http://www.w3.org/2000/svg" xmlns:xlink="http://www.w3.org/1999/xlink" x="0px" y="0px"
	 width="275px" height="275px" viewBox="0 0 275 275" enable-background="new 0 0 275 275" xml:space="preserve">
<g>
	<polygon fill="#9CD9F5" points="43.012,233.719 39.72,144.055 3.75,142.777 8.266,265.691 130.665,270.033 129.445,236.771 	"/>
	<polygon opacity="0.3" fill="#9CD9F5" points="129.445,236.771 126.164,147.115 39.72,144.055 43.012,233.719 	"/>
	<polygon fill="#9CD9F5" points="8.238,6.609 3.746,129.545 39.628,128.275 42.901,38.604 129.455,35.559 130.665,2.305 	"/>
	<polygon opacity="0.3" fill="#9CD9F5" points="39.628,128.275 126.182,125.223 129.455,35.559 42.901,38.604 	"/>
	<polygon fill="#9CD9F5" points="232.168,233.66 145.753,236.713 144.533,269.98 266.979,265.658 271.471,142.727 235.45,144 	"/>
	<polygon opacity="0.3" fill="#9CD9F5" points="235.45,144 149.034,147.045 145.753,236.713 232.168,233.66 	"/>
	<polygon fill="#9CD9F5" points="232.232,38.604 235.505,128.283 271.461,129.545 266.986,6.626 144.542,2.314 145.753,35.559 	"/>
	<polygon opacity="0.3" fill="#9CD9F5" points="145.753,35.559 149.034,125.24 235.505,128.283 232.232,38.604 	"/>
</g>
</svg>
